<svg width="89" height="90" xmlns="http://www.w3.org/2000/svg" xmlns:xlink="http://www.w3.org/1999/xlink" overflow="hidden"><defs><clipPath id="clip0"><rect x="236" y="424" width="89" height="90"/></clipPath></defs><g clip-path="url(#clip0)" transform="translate(-236 -424)"><path d="M281.855 425.149C302.245 425.726 320.105 440.546 323.764 461.42 324.287 464.402 324.495 467.367 324.413 470.28L324.358 470.975 282.583 471.391 282.882 472.186 237.053 472.187 236.725 467.706C237.302 447.317 252.122 429.457 272.996 425.798 275.978 425.275 278.943 425.067 281.855 425.149ZM288.186 438.204C285.249 438.719 283.286 441.516 283.801 444.452 284.316 447.388 287.113 449.351 290.05 448.837 292.986 448.322 294.949 445.524 294.434 442.588 293.919 439.652 291.122 437.689 288.186 438.204Z" fill-rule="evenodd"/><path d="M288.185 438.204C291.121 437.689 293.919 439.652 294.434 442.589 294.948 445.525 292.985 448.322 290.049 448.837 287.113 449.352 284.316 447.389 283.801 444.453 283.286 441.516 285.249 438.719 288.185 438.204Z" stroke="#000000" stroke-width="6" stroke-miterlimit="8" fill="#FFFFFF" fill-rule="evenodd"/><path d="M237.053 472.187 282.882 472.186 296.94 509.673 296.693 509.784C293.982 510.853 291.123 511.665 288.141 512.188 264.285 516.37 241.556 500.422 237.373 476.565L237.053 472.187Z" fill="#FFC000" fill-rule="evenodd"/></g></svg>