<svg width="385" height="125" xmlns="http://www.w3.org/2000/svg" xmlns:xlink="http://www.w3.org/1999/xlink" overflow="hidden"><defs><clipPath id="clip0"><rect x="143" y="644" width="385" height="125"/></clipPath></defs><g clip-path="url(#clip0)" transform="translate(-143 -644)"><path d="M188.365 652.02C208.357 652.634 225.832 667.089 229.366 687.395 229.871 690.295 230.068 693.178 229.98 696.01L229.924 696.686 188.959 696.983 188.965 697 144.073 697 144 693.283C144.619 673.46 159.197 656.133 179.676 652.628 182.601 652.128 185.509 651.933 188.365 652.02ZM194.538 664.73C191.658 665.223 189.726 667.938 190.223 670.794 190.72 673.65 193.458 675.566 196.339 675.073 199.219 674.58 201.151 671.865 200.654 669.009 200.157 666.153 197.419 664.237 194.538 664.73Z" fill-rule="evenodd"/><path d="M144 697 188.995 697 203 734.895 202.757 735.005C200.09 736.055 197.278 736.851 194.346 737.361 170.888 741.436 148.59 725.598 144.541 701.985 144.288 700.509 144.113 699.037 144.011 697.575L144 697Z" fill="#FFC000" fill-rule="evenodd"/><text font-family="Bubbled,Bubbled_MSFontService,sans-serif" font-weight="500" font-size="59" transform="translate(251.983 717)">tokative</text></g></svg>