<svg width="385" height="124" xmlns="http://www.w3.org/2000/svg" xmlns:xlink="http://www.w3.org/1999/xlink" overflow="hidden"><defs><clipPath id="clip0"><rect x="95" y="477" width="385" height="124"/></clipPath></defs><g clip-path="url(#clip0)" transform="translate(-95 -477)"><path d="M140.365 485.02C160.357 485.634 177.832 500.089 181.366 520.395 181.871 523.295 182.068 526.178 181.98 529.01L181.924 529.686 140.959 529.983 140.965 530 96.073 530 96 526.283C96.6187 506.46 111.197 489.133 131.676 485.628 134.601 485.128 137.509 484.933 140.365 485.02ZM146.538 497.73C143.658 498.223 141.726 500.938 142.223 503.794 142.72 506.65 145.458 508.566 148.339 508.073 151.219 507.58 153.151 504.865 152.654 502.009 152.157 499.153 149.419 497.237 146.538 497.73Z" fill-rule="evenodd"/><path d="M96 530 140.995 530 155 567.895 154.757 568.005C152.09 569.055 149.278 569.851 146.346 570.361 122.888 574.436 100.59 558.598 96.5413 534.985 96.2883 533.509 96.1125 532.037 96.0111 530.575L96 530Z" fill="#FFC000" fill-rule="evenodd"/><text font-family="Bubbled,Bubbled_MSFontService,sans-serif" font-weight="500" font-size="59" transform="translate(203.983 550)">tokative</text></g></svg>