<svg width="191" height="190" xmlns="http://www.w3.org/2000/svg" xmlns:xlink="http://www.w3.org/1999/xlink" overflow="hidden"><defs><clipPath id="clip0"><rect x="191" y="97" width="191" height="190"/></clipPath></defs><g clip-path="url(#clip0)" transform="translate(-191 -97)"><path d="M289.5 97.0451C333.436 98.4085 371.84 130.532 379.608 175.655 380.717 182.101 381.149 188.507 380.955 194.801L380.834 196.303 290.805 196.962 290.819 197 192.16 197 192 188.74C193.36 144.688 225.399 106.184 270.404 98.396 276.833 97.2835 283.223 96.8504 289.5 97.0451ZM303.067 125.289C296.737 126.384 292.491 132.418 293.583 138.765 294.676 145.112 300.693 149.369 307.024 148.273 313.354 147.178 317.6 141.145 316.508 134.798 315.415 128.451 309.398 124.194 303.067 125.289Z" fill-rule="evenodd"/><path d="M192 197 291.142 197 322 280.184 321.464 280.426C315.587 282.73 309.392 284.479 302.932 285.597 251.245 294.543 202.113 259.776 193.193 207.942 192.635 204.702 192.248 201.473 192.024 198.262L192 197Z" fill="#FFC000" fill-rule="evenodd"/></g></svg>