<svg width="401" height="197" xmlns="http://www.w3.org/2000/svg" xmlns:xlink="http://www.w3.org/1999/xlink" overflow="hidden"><defs><clipPath id="clip0"><rect x="99" y="200" width="401" height="197"/></clipPath></defs><g clip-path="url(#clip0)" transform="translate(-99 -200)"><path d="M189.277 201.042C229.96 202.296 265.519 231.849 272.711 273.362 273.738 279.293 274.138 285.187 273.958 290.977L273.846 292.359 190.486 292.965 190.499 293 99.1485 293 99 285.401C100.259 244.873 129.925 209.449 171.596 202.284 177.549 201.261 183.466 200.862 189.277 201.042ZM201.84 227.026C195.978 228.034 192.047 233.584 193.059 239.424 194.07 245.263 199.642 249.179 205.503 248.172 211.365 247.164 215.296 241.613 214.285 235.774 213.273 229.935 207.701 226.018 201.84 227.026Z" fill-rule="evenodd"/><path d="M99 293 190.516 293 219 368.79 218.506 369.01C213.081 371.11 207.362 372.703 201.398 373.722 153.688 381.872 108.335 350.196 100.101 302.969 99.5863 300.017 99.2289 297.075 99.0226 294.15L99 293Z" fill="#FFC000" fill-rule="evenodd"/><text font-family="Bubbled,Bubbled_MSFontService,sans-serif" font-weight="500" font-size="59" transform="translate(224.018 345)">tokative</text></g></svg>