<svg width="89" height="89" xmlns="http://www.w3.org/2000/svg" xmlns:xlink="http://www.w3.org/1999/xlink" overflow="hidden"><defs><clipPath id="clip0"><rect x="486" y="100" width="89" height="89"/></clipPath></defs><g clip-path="url(#clip0)" transform="translate(-486 -100)"><path d="M531.306 100.653C551.696 101.23 569.556 116.05 573.215 136.924 573.738 139.906 573.946 142.87 573.864 145.783L573.809 146.479 532.034 146.894 532.333 147.69 486.504 147.69 486.176 143.21C486.753 122.821 501.573 104.961 522.447 101.301 525.429 100.779 528.394 100.57 531.306 100.653ZM537.637 113.708C534.7 114.223 532.737 117.02 533.252 119.956 533.767 122.892 536.564 124.855 539.501 124.341 542.437 123.826 544.4 121.028 543.885 118.092 543.37 115.156 540.573 113.193 537.637 113.708Z" fill-rule="evenodd"/><path d="M537.636 113.708C540.572 113.193 543.37 115.156 543.885 118.092 544.399 121.028 542.436 123.826 539.5 124.341 536.564 124.855 533.767 122.892 533.252 119.956 532.737 117.02 534.7 114.223 537.636 113.708Z" stroke="#000000" stroke-width="6" stroke-miterlimit="8" fill="#FFFFFF" fill-rule="evenodd"/><path d="M486.504 147.69 532.333 147.69 546.391 185.176 546.144 185.288C543.433 186.357 540.574 187.169 537.592 187.692 513.736 191.874 491.007 175.926 486.824 152.069L486.504 147.69Z" fill="#FFC000" fill-rule="evenodd"/></g></svg>